# xmcd
#
# Track frame offsets:
# 150
# 16762
# 33702
# 52675
# 67405
# 79762
# 96900
# 111117
# 127647
#
# Disc length: 1907 seconds
#
#
# Revision: 5
# Processed by: cddbd v1.5.2PL0 Copyright (c) Steve Scherf et al.
# Submitted via: FreeRIP 2.951 
#
DISCID=6b077109
DTITLE=Diamond Rio - Super Hits - Diamond Rio - Super Hits
DYEAR=1999
DGENRE=Country
TTITLE0=Love a Little Stronger
TTITLE1=Bubba Hyde
TTITLE2=Mama Don't Forget to Pray for Me
TTITLE3=Oh Me, Oh My, Sweet Baby
TTITLE4=This Romeo ain't Got Julie Yet
TTITLE5=Who am I?
TTITLE6=She Sure Did Like to Run
TTITLE7=Down by the Riverside
TTITLE8=Poultry Promenade
EXTD=Mario´s Musik
EXTT0=
EXTT1=
EXTT2=
EXTT3=
EXTT4=
EXTT5=
EXTT6=
EXTT7=
EXTT8=
PLAYORDER=
